<?xml version="1.0" encoding="UTF-8" standalone="no"?>
<svg
   xmlns:dc="http://purl.org/dc/elements/1.1/"
   xmlns:cc="http://creativecommons.org/ns#"
   xmlns:rdf="http://www.w3.org/1999/02/22-rdf-syntax-ns#"
   xmlns:svg="http://www.w3.org/2000/svg"
   xmlns="http://www.w3.org/2000/svg"
   xmlns:sodipodi="http://sodipodi.sourceforge.net/DTD/sodipodi-0.dtd"
   xmlns:inkscape="http://www.inkscape.org/namespaces/inkscape"
   version="1.1"
   viewBox="0 -390 1354 2000"
   id="svg4185"
   inkscape:version="0.91 r13725"
   sodipodi:docname="concentrictity.svg">
  <metadata
     id="metadata4195">
    <rdf:RDF>
      <cc:Work
         rdf:about="">
        <dc:format>image/svg+xml</dc:format>
        <dc:type
           rdf:resource="http://purl.org/dc/dcmitype/StillImage" />
        <dc:title></dc:title>
      </cc:Work>
    </rdf:RDF>
  </metadata>
  <defs
     id="defs4193" />
  <sodipodi:namedview
     pagecolor="#ffffff"
     bordercolor="#666666"
     borderopacity="1"
     objecttolerance="10"
     gridtolerance="10"
     guidetolerance="10"
     inkscape:pageopacity="0"
     inkscape:pageshadow="2"
     inkscape:window-width="1920"
     inkscape:window-height="1018"
     id="namedview4191"
     showgrid="false"
     showguides="true"
     inkscape:guide-bbox="true"
     inkscape:snap-object-midpoints="true"
     inkscape:snap-center="true"
     inkscape:snap-midpoints="true"
     inkscape:snap-smooth-nodes="true"
     inkscape:object-nodes="true"
     inkscape:snap-intersection-paths="true"
     inkscape:object-paths="true"
     inkscape:snap-page="true"
     inkscape:zoom="0.472"
     inkscape:cx="677"
     inkscape:cy="809.9457"
     inkscape:window-x="1912"
     inkscape:window-y="-8"
     inkscape:window-maximized="1"
     inkscape:current-layer="svg4185">
    <sodipodi:guide
       position="677,1433"
       orientation="0,1"
       id="guide4737" />
    <sodipodi:guide
       position="6,0"
       orientation="0,1"
       id="guide4739" />
    <sodipodi:guide
       position="0,1570.0168"
       orientation="1,0"
       id="guide4741" />
    <sodipodi:guide
       position="1354,1045.6791"
       orientation="1,0"
       id="guide4743" />
    <sodipodi:guide
       position="677,1760.3028"
       orientation="1,0"
       id="guide4747" />
    <sodipodi:guide
       position="578.20468,713.16406"
       orientation="-0.70710678,0.70710678"
       id="guide4760" />
    <sodipodi:guide
       position="830.9654,775.00594"
       orientation="-0.70710678,0.70710678"
       id="guide4762" />
    <sodipodi:guide
       position="1668.8919,425.75"
       orientation="0,1"
       id="guide4770"
       inkscape:label=""
       inkscape:color="rgb(0,0,255)" />
    <sodipodi:guide
       position="1552.9661,290.75"
       orientation="0,1"
       id="guide4772"
       inkscape:label=""
       inkscape:color="rgb(0,0,255)" />
  </sodipodi:namedview>
  <path
     style="opacity:1;fill:#000000;fill-opacity:1;fill-rule:nonzero;stroke:none;stroke-width:9.92125988;stroke-linecap:round;stroke-linejoin:miter;stroke-miterlimit:4;stroke-dasharray:none;stroke-dashoffset:0;stroke-opacity:1"
     d="m 677,467.75001 c -112.91591,0 -221.20709,44.85568 -301.05071,124.69928 -79.8436,79.84362 -124.69928,188.1348 -124.69928,301.05071 0,112.9159 44.85568,221.2071 124.69928,301.0507 C 455.79291,1274.3943 564.08408,1319.25 677,1319.25 c 112.91592,0 221.2071,-44.8557 301.05069,-124.6993 C 1057.8943,1114.7071 1102.75,1006.4159 1102.75,893.5 1102.75,780.58408 1057.8943,672.29291 978.05069,592.44929 898.20709,512.60569 789.91592,467.75001 677,467.75001 Z m 0,134.99995 c 160.57683,0 290.75005,130.17322 290.75005,290.75004 0,160.5768 -130.17322,290.75 -290.75005,290.75 -160.57682,0 -290.75004,-130.1732 -290.75004,-290.75 0,-160.57682 130.17322,-290.75004 290.75004,-290.75004 z"
     id="path4749"
     inkscape:connector-curvature="0"
     sodipodi:nodetypes="ssssssssssssss" />
  <path
     inkscape:connector-curvature="0"
     style="opacity:1;fill:#000000;fill-opacity:1;fill-rule:nonzero;stroke:none;stroke-width:9.92125988;stroke-linecap:round;stroke-linejoin:miter;stroke-miterlimit:4;stroke-dasharray:none;stroke-dashoffset:0;stroke-opacity:1"
     d="m 677,177.00001 a 716.5,716.5 0 0 0 -716.50002,716.5 A 716.5,716.5 0 0 0 677,1610 716.5,716.5 0 0 0 1393.5,893.50001 716.5,716.5 0 0 0 677,177.00001 Z m 0,135 a 581.5,581.5 0 0 1 581.5,581.5 A 581.5,581.5 0 0 1 677,1475 581.5,581.5 0 0 1 95.49998,893.50001 581.5,581.5 0 0 1 677,312.00001 Z"
     id="path4749-0" />
</svg>
