<?xml version="1.0" encoding="UTF-8" standalone="no"?>
<svg
   xmlns:dc="http://purl.org/dc/elements/1.1/"
   xmlns:cc="http://creativecommons.org/ns#"
   xmlns:rdf="http://www.w3.org/1999/02/22-rdf-syntax-ns#"
   xmlns:svg="http://www.w3.org/2000/svg"
   xmlns="http://www.w3.org/2000/svg"
   xmlns:sodipodi="http://sodipodi.sourceforge.net/DTD/sodipodi-0.dtd"
   xmlns:inkscape="http://www.inkscape.org/namespaces/inkscape"
   version="1.1"
   viewBox="0 -792 2000 2000"
   id="svg19371"
   inkscape:version="0.91 r13725"
   sodipodi:docname="circle_box_left.svg"
   width="2000"
   height="2000">
  <metadata
     id="metadata19381">
    <rdf:RDF>
      <cc:Work
         rdf:about="">
        <dc:format>image/svg+xml</dc:format>
        <dc:type
           rdf:resource="http://purl.org/dc/dcmitype/StillImage" />
        <dc:title></dc:title>
      </cc:Work>
    </rdf:RDF>
  </metadata>
  <defs
     id="defs19379" />
  <sodipodi:namedview
     pagecolor="#ffffff"
     bordercolor="#666666"
     borderopacity="1"
     objecttolerance="10"
     gridtolerance="10"
     guidetolerance="10"
     inkscape:pageopacity="0"
     inkscape:pageshadow="2"
     inkscape:window-width="1920"
     inkscape:window-height="1018"
     id="namedview19377"
     showgrid="false"
     inkscape:object-paths="true"
     inkscape:snap-intersection-paths="true"
     inkscape:object-nodes="true"
     inkscape:snap-smooth-nodes="true"
     inkscape:snap-midpoints="true"
     inkscape:snap-object-midpoints="true"
     inkscape:snap-center="true"
     inkscape:snap-page="true"
     inkscape:zoom="0.1668772"
     inkscape:cx="221.82481"
     inkscape:cy="869.7261"
     inkscape:window-x="1912"
     inkscape:window-y="-8"
     inkscape:window-maximized="1"
     inkscape:current-layer="svg19371"
     showguides="true"
     inkscape:guide-bbox="true">
    <sodipodi:guide
       position="411.5,1825"
       orientation="0,1"
       id="guide20494" />
    <sodipodi:guide
       position="0,315"
       orientation="0,1"
       id="guide20496" />
    <sodipodi:guide
       position="2000,881.35593"
       orientation="1,0"
       id="guide21069" />
  </sodipodi:namedview>
  <path
     style="fill:currentColor"
     d="M 2000 175 L 1177 177 L 1177 1287.1973 A 716.5 716.5 0 0 0 581.5 968.5 A 716.5 716.5 0 0 0 -135 1685 A 716.5 716.5 0 0 0 581.5 2401.5 A 716.5 716.5 0 0 0 1177 2082.4941 L 1177 3195 L 2000 3195 L 2000 3060 L 1311 3056 L 1311 309 L 2000 309 L 2000 175 z M 581.5 1103.5 A 581.5 581.5 0 0 1 1163 1685 A 581.5 581.5 0 0 1 581.5 2266.5 A 581.5 581.5 0 0 1 0 1685 A 581.5 581.5 0 0 1 581.5 1103.5 z "
     transform="translate(0,-792)"
     id="path19375" />
</svg>
