<?xml version="1.0" encoding="UTF-8" standalone="no"?>
<svg
   xmlns:dc="http://purl.org/dc/elements/1.1/"
   xmlns:cc="http://creativecommons.org/ns#"
   xmlns:rdf="http://www.w3.org/1999/02/22-rdf-syntax-ns#"
   xmlns:svg="http://www.w3.org/2000/svg"
   xmlns="http://www.w3.org/2000/svg"
   xmlns:sodipodi="http://sodipodi.sourceforge.net/DTD/sodipodi-0.dtd"
   xmlns:inkscape="http://www.inkscape.org/namespaces/inkscape"
   version="1.1"
   viewBox="0 -390 1433 2000"
   id="svg4185"
   inkscape:version="0.91 r13725"
   sodipodi:docname="concentricity.svg"
   width="1433"
   height="2000">
  <metadata
     id="metadata4195">
    <rdf:RDF>
      <cc:Work
         rdf:about="">
        <dc:format>image/svg+xml</dc:format>
        <dc:type
           rdf:resource="http://purl.org/dc/dcmitype/StillImage" />
        <dc:title></dc:title>
      </cc:Work>
    </rdf:RDF>
  </metadata>
  <defs
     id="defs4193" />
  <sodipodi:namedview
     pagecolor="#ffffff"
     bordercolor="#666666"
     borderopacity="1"
     objecttolerance="10"
     gridtolerance="10"
     guidetolerance="10"
     inkscape:pageopacity="0"
     inkscape:pageshadow="2"
     inkscape:window-width="1920"
     inkscape:window-height="1018"
     id="namedview4191"
     showgrid="false"
     showguides="true"
     inkscape:guide-bbox="true"
     inkscape:snap-object-midpoints="true"
     inkscape:snap-center="true"
     inkscape:snap-midpoints="true"
     inkscape:snap-smooth-nodes="true"
     inkscape:object-nodes="true"
     inkscape:snap-intersection-paths="true"
     inkscape:object-paths="true"
     inkscape:snap-page="true"
     inkscape:zoom="0.472"
     inkscape:cx="228.15256"
     inkscape:cy="809.9457"
     inkscape:window-x="1912"
     inkscape:window-y="-8"
     inkscape:window-maximized="1"
     inkscape:current-layer="svg4185"
     fit-margin-top="567"
     fit-margin-left="0"
     fit-margin-right="0"
     fit-margin-bottom="0">
    <sodipodi:guide
       position="40.00002,0.7165"
       orientation="0,1"
       id="guide4737" />
    <sodipodi:guide
       position="39.504451,4.5474736e-013"
       orientation="0,1"
       id="guide4739" />
    <sodipodi:guide
       position="39.50002,0.7850084"
       orientation="1,0"
       id="guide4741" />
    <sodipodi:guide
       position="40.50002,0.52283955"
       orientation="1,0"
       id="guide4743" />
    <sodipodi:guide
       position="40.00002,0.8801514"
       orientation="1,0"
       id="guide4747" />
    <sodipodi:guide
       position="39.927054,0.35658203"
       orientation="-0.70710678,0.70710678"
       id="guide4760" />
    <sodipodi:guide
       position="40.113732,0.38750297"
       orientation="-0.70710678,0.70710678"
       id="guide4762" />
    <sodipodi:guide
       position="40.732584,0.212875"
       orientation="0,1"
       id="guide4770"
       inkscape:label=""
       inkscape:color="rgb(0,0,255)" />
    <sodipodi:guide
       position="40.646967,0.145375"
       orientation="0,1"
       id="guide4772"
       inkscape:label=""
       inkscape:color="rgb(0,0,255)" />
  </sodipodi:namedview>
  <path
     style="opacity:1;fill:#000000;fill-opacity:1;fill-rule:nonzero;stroke:none;stroke-width:9.92125988;stroke-linecap:round;stroke-linejoin:miter;stroke-miterlimit:4;stroke-dasharray:none;stroke-dashoffset:0;stroke-opacity:1"
     d="m 716.50002,467.75 c -112.91591,0 -221.20709,44.85568 -301.05071,124.69928 -79.8436,79.84362 -124.69928,188.1348 -124.69928,301.05071 0,112.91591 44.85568,221.20711 124.69928,301.05071 79.84362,79.8436 188.13479,124.6993 301.05071,124.6993 112.91592,0 221.2071,-44.8557 301.05068,-124.6993 79.8436,-79.8436 124.6993,-188.1348 124.6993,-301.05071 0,-112.91592 -44.8557,-221.20709 -124.6993,-301.05071 C 937.70711,512.60568 829.41594,467.75 716.50002,467.75 Z m 0,134.99995 c 160.57683,0 290.75008,130.17322 290.75008,290.75004 0,160.57681 -130.17325,290.75001 -290.75008,290.75001 -160.57682,0 -290.75004,-130.1732 -290.75004,-290.75001 0,-160.57682 130.17322,-290.75004 290.75004,-290.75004 z"
     id="path4749"
     inkscape:connector-curvature="0"
     sodipodi:nodetypes="ssssssssssssss" />
  <path
     inkscape:connector-curvature="0"
     style="opacity:1;fill:#000000;fill-opacity:1;fill-rule:nonzero;stroke:none;stroke-width:9.92125988;stroke-linecap:round;stroke-linejoin:miter;stroke-miterlimit:4;stroke-dasharray:none;stroke-dashoffset:0;stroke-opacity:1"
     d="M 716.50002,177 A 716.5,716.5 0 0 0 0,893.5 716.5,716.5 0 0 0 716.50002,1610 716.5,716.5 0 0 0 1433,893.5 716.5,716.5 0 0 0 716.50002,177 Z m 0,135 A 581.5,581.5 0 0 1 1298,893.5 581.5,581.5 0 0 1 716.50002,1475 581.5,581.5 0 0 1 135,893.5 581.5,581.5 0 0 1 716.50002,312 Z"
     id="path4749-0" />
</svg>
