<?xml version="1.0" encoding="UTF-8" standalone="no"?>
<svg
   xmlns:dc="http://purl.org/dc/elements/1.1/"
   xmlns:cc="http://creativecommons.org/ns#"
   xmlns:rdf="http://www.w3.org/1999/02/22-rdf-syntax-ns#"
   xmlns:svg="http://www.w3.org/2000/svg"
   xmlns="http://www.w3.org/2000/svg"
   xmlns:sodipodi="http://sodipodi.sourceforge.net/DTD/sodipodi-0.dtd"
   xmlns:inkscape="http://www.inkscape.org/namespaces/inkscape"
   version="1.1"
   viewBox="0 -390 757.11212 2000"
   id="svg48748"
   inkscape:version="0.91 r13725"
   sodipodi:docname="S.sc.svg"
   width="757.11212"
   height="2000">
  <metadata
     id="metadata48758">
    <rdf:RDF>
      <cc:Work
         rdf:about="">
        <dc:format>image/svg+xml</dc:format>
        <dc:type
           rdf:resource="http://purl.org/dc/dcmitype/StillImage" />
        <dc:title></dc:title>
      </cc:Work>
    </rdf:RDF>
  </metadata>
  <defs
     id="defs48756" />
  <sodipodi:namedview
     pagecolor="#ffffff"
     bordercolor="#666666"
     borderopacity="1"
     objecttolerance="10"
     gridtolerance="10"
     guidetolerance="10"
     inkscape:pageopacity="0"
     inkscape:pageshadow="2"
     inkscape:window-width="1920"
     inkscape:window-height="1018"
     id="namedview48754"
     showgrid="false"
     inkscape:zoom="0.118"
     inkscape:cx="-1407.8898"
     inkscape:cy="1000"
     inkscape:window-x="1912"
     inkscape:window-y="-8"
     inkscape:window-maximized="1"
     inkscape:current-layer="svg48748"
     inkscape:snap-bbox="true"
     inkscape:snap-object-midpoints="true"
     inkscape:snap-center="true"
     inkscape:object-paths="true"
     inkscape:snap-intersection-paths="true"
     inkscape:object-nodes="true"
     inkscape:snap-smooth-nodes="true"
     inkscape:snap-midpoints="true"
     showguides="true"
     inkscape:guide-bbox="true"
     inkscape:snap-page="true">
    <sodipodi:guide
       position="0,983.05085"
       orientation="1,0"
       id="guide51497" />
    <sodipodi:guide
       position="1091,720.33898"
       orientation="1,0"
       id="guide51499" />
    <sodipodi:guide
       position="754.23729,2000"
       orientation="0,1"
       id="guide51501" />
    <sodipodi:guide
       position="923.72881,0"
       orientation="0,1"
       id="guide51503" />
    <sodipodi:guide
       position="757.11212,1677.9661"
       orientation="1,0"
       id="guide51511" />
  </sodipodi:namedview>
  <path
     style="fill:currentColor"
     inkscape:connector-curvature="0"
     id="path48752"
     d="m 641.22046,786.30654 q -7.63357,12.49131 -15.96111,18.38998 -8.32754,5.89867 -20.81885,5.89867 -13.18527,0 -29.49336,-11.10338 -16.3081,-11.10338 -40.24977,-24.63563 -23.94168,-13.53225 -56.55787,-24.98262 -32.61619,-11.45037 -77.72369,-11.45037 -41.63769,0 -73.21294,10.40943 -31.57525,10.40942 -53.08806,29.14638 -21.51281,18.73696 -32.26921,44.06656 -10.75641,25.3296 -10.75641,55.16994 0,38.16789 20.12489,63.49748 20.12488,25.3296 53.08806,43.3726 32.96317,18.04302 75.29482,31.57522 42.33166,13.5323 86.39821,28.7994 44.06656,15.2672 86.39822,34.6981 42.33165,19.4309 75.29482,49.2713 32.96318,29.8403 53.08806,72.8659 20.12489,43.0257 20.12489,104.7882 0,66.6203 -22.90074,124.9131 -22.90073,58.2928 -66.27332,101.6654 -43.3726,43.3726 -106.87008,68.3552 Q 441.35954,1626 360.16604,1626 q -47.88335,0 -93.33783,-9.3685 -45.45448,-9.3685 -86.74519,-26.3705 -41.29071,-17.0021 -77.37671,-41.2907 -36.086002,-24.2887 -64.538425,-54.129 l 47.189384,-77.7237 q 6.245654,-9.7155 15.961111,-15.2672 9.71547,-5.5517 21.51281,-5.5517 15.96112,0 35.39204,14.9202 19.43092,14.9202 46.84241,32.6162 27.41148,17.696 66.27332,32.6162 38.86185,14.9202 92.99085,14.9202 88.13311,0 136.36344,-43.0257 48.23033,-43.0256 48.23033,-118.6674 0,-42.3316 -20.12489,-69.0491 -20.12488,-26.7176 -53.08805,-44.7606 -32.96318,-18.043 -75.29483,-30.5343 -42.33166,-12.4913 -86.05123,-26.7175 -43.71958,-14.2262 -86.05123,-33.3101 -42.33166,-19.084 -75.29483,-49.9653 -32.96317,-30.8813 -53.088058,-76.33575 -20.124885,-45.45448 -20.124885,-113.46271 0,-54.129 21.165823,-104.78819 21.16583,-50.65919 61.76258,-89.86802 40.59675,-39.20883 100.27744,-62.80352 59.6807,-23.59469 136.01647,-23.59469 86.05123,0 157.87625,27.0645 71.82502,27.0645 123.87213,77.02973 z" />
</svg>
