<?xml version="1.0" encoding="UTF-8" standalone="no"?>
<svg
   xmlns:dc="http://purl.org/dc/elements/1.1/"
   xmlns:cc="http://creativecommons.org/ns#"
   xmlns:rdf="http://www.w3.org/1999/02/22-rdf-syntax-ns#"
   xmlns:svg="http://www.w3.org/2000/svg"
   xmlns="http://www.w3.org/2000/svg"
   xmlns:sodipodi="http://sodipodi.sourceforge.net/DTD/sodipodi-0.dtd"
   xmlns:inkscape="http://www.inkscape.org/namespaces/inkscape"
   version="1.1"
   viewBox="0 -390 928.75201 2000"
   id="svg32527"
   inkscape:version="0.91 r13725"
   sodipodi:docname="X_sc.svg"
   width="928.75201"
   height="2000">
  <metadata
     id="metadata32537">
    <rdf:RDF>
      <cc:Work
         rdf:about="">
        <dc:format>image/svg+xml</dc:format>
        <dc:type
           rdf:resource="http://purl.org/dc/dcmitype/StillImage" />
        <dc:title></dc:title>
      </cc:Work>
    </rdf:RDF>
  </metadata>
  <defs
     id="defs32535" />
  <sodipodi:namedview
     pagecolor="#ffffff"
     bordercolor="#666666"
     borderopacity="1"
     objecttolerance="10"
     gridtolerance="10"
     guidetolerance="10"
     inkscape:pageopacity="0"
     inkscape:pageshadow="2"
     inkscape:window-width="1920"
     inkscape:window-height="1018"
     id="namedview32533"
     showgrid="false"
     showguides="true"
     inkscape:guide-bbox="true"
     inkscape:snap-intersection-paths="true"
     inkscape:object-paths="true"
     inkscape:object-nodes="true"
     inkscape:snap-smooth-nodes="true"
     inkscape:snap-midpoints="true"
     inkscape:snap-object-midpoints="true"
     inkscape:snap-page="true"
     inkscape:zoom="0.6675088"
     inkscape:cx="590"
     inkscape:cy="495.17603"
     inkscape:window-x="-8"
     inkscape:window-y="-8"
     inkscape:window-maximized="1"
     inkscape:current-layer="svg32527"
     inkscape:snap-nodes="false">
    <sodipodi:guide
       position="0,774.52162"
       orientation="1,0"
       id="guide33079" />
    <sodipodi:guide
       position="208.68588,1013.184"
       orientation="0,1"
       id="guide33081" />
    <sodipodi:guide
       position="928.75201,657.66923"
       orientation="1,0"
       id="guide33083" />
    <sodipodi:guide
       position="1153.5428,0"
       orientation="0,1"
       id="guide33085" />
    <sodipodi:guide
       position="590,1460"
       orientation="0,1"
       id="guide33703" />
    <sodipodi:guide
       position="464.37601,1013.184"
       orientation="1,0"
       id="guide34327" />
    <sodipodi:guide
       position="0,506.59201"
       orientation="0,1"
       id="guide34329" />
  </sodipodi:namedview>
  <g
     transform="matrix(1,0,0,-1,1990.2144,2147.8713)"
     id="g33107">
    <path
       style="fill:currentColor"
       inkscape:connector-curvature="0"
       d="m 323,720 q 0,-125 34,-224 34,-99 97,-167.5 63,-68.5 152,-105 89,-36.5 199,-36.5 111,0 200,36.5 89,36.5 151.5,105 62.5,68.5 96,167.5 33.5,99 33.5,224 0,124 -33.5,223 -33.5,99 -96,168 -62.5,69 -151.5,106 -89,37 -200,37 -110,0 -199,-37 -89,-37 -152,-106 -63,-69 -97,-168 -34,-99 -34,-223 z m 1273,-1008 -192,0 q -43,0 -76,11.5 -33,11.5 -61,41.5 L 1037,18 Q 929,-15 805,-15 644,-15 511.5,40 379,95 284,192.5 189,290 137,425 85,560 85,720 q 0,160 52,295 52,135 147,233 95,98 227.5,153 132.5,55 293.5,55 162,0 294.5,-55 132.5,-55 227,-153 94.5,-98 146.5,-233 52,-135 52,-295 0,-99 -20,-188.5 -20,-89.5 -58,-167 -38,-77.5 -93,-142 Q 1299,158 1229,110 Z"
       id="path33109" />
  </g>
  <text
     xml:space="preserve"
     style="font-style:normal;font-variant:normal;font-weight:300;font-stretch:normal;font-size:45px;line-height:125%;font-family:Lato;-inkscape-font-specification:'Lato Light';letter-spacing:0px;word-spacing:0px;fill:#000000;fill-opacity:1;stroke:none;stroke-width:1px;stroke-linecap:butt;stroke-linejoin:miter;stroke-opacity:1"
     x="284.64044"
     y="469.94012"
     id="text33706"
     sodipodi:linespacing="125%"><tspan
       sodipodi:role="line"
       id="tspan33708"
       x="284.64044"
       y="469.94012" /><tspan
       sodipodi:role="line"
       x="284.64044"
       y="526.19012"
       id="tspan33712" /><tspan
       sodipodi:role="line"
       x="284.64044"
       y="582.44012"
       id="tspan33714" /></text>
  <text
     xml:space="preserve"
     style="font-style:normal;font-variant:normal;font-weight:normal;font-stretch:normal;font-size:45px;line-height:125%;font-family:Calibri;-inkscape-font-specification:Calibri;letter-spacing:0px;word-spacing:0px;fill:#000000;fill-opacity:1;stroke:none;stroke-width:1px;stroke-linecap:butt;stroke-linejoin:miter;stroke-opacity:1"
     x="97.376991"
     y="492.41174"
     id="text33716"
     sodipodi:linespacing="125%"><tspan
       sodipodi:role="line"
       id="tspan33718"
       x="97.376991"
       y="492.41174" /></text>
  <g
     id="g34311"
     transform="matrix(0.7036,0,0,-0.7036,0.35181208,1610)">
    <path
       id="path34313"
       d="m 1308,0 -233,0 q -24,0 -39,13 -15,13 -24,29 L 654,619 Q 650,607 645.5,596 641,585 635,575 L 289,42 Q 278,26 264.5,13 251,0 229,0 L 11,0 497,740 31,1440 l 232,0 q 25,0 36.5,-7.5 Q 311,1425 320,1410 l 350,-550 10,24 q 0,0 13,25 l 326,497 q 10,17 22,25.5 12,8.5 29,8.5 l 223,0 -470,-690 z"
       inkscape:connector-curvature="0"
       style="fill:currentColor" />
  </g>
</svg>
